<svg viewBox="0 0 32 32" fill="none" xmlns="http://www.w3.org/2000/svg" id="Bullseye-Flat--Streamline-Fluent-Emoji.svg" height="32" width="32"><desc>Bullseye Flat Streamline Emoji: https://streamlinehq.com</desc><path d="M14 28.2921c5.6841 0 10.292 -4.6079 10.292 -10.2921 0 -5.6841 -4.6079 -10.29199 -10.292 -10.29199C8.31585 7.70801 3.70795 12.3159 3.70795 18c0 5.6842 4.6079 10.2921 10.29205 10.2921Z" fill="#f4f4f4" stroke-width="1"></path><path d="M26 18c0 -6.6274 -5.3726 -12 -12 -12C7.37258 6 2 11.3726 2 18s5.37258 12 12 12c6.6274 0 12 -5.3726 12 -12Zm-3 0c0 4.9705 -4.0294 9 -9 9 -4.97056 0 -9 -4.0295 -9 -9 0 -4.9706 4.02944 -9 9 -9 4.9706 0 9 4.0294 9 9Zm-9 6c-3.3137 0 -6 -2.6863 -6 -6s2.6863 -6 6 -6 6 2.6863 6 6 -2.6863 6 -6 6Zm3 -6c0 -1.6568 -1.3431 -3 -3 -3s-3 1.3432 -3 3 1.3431 3 3 3 3 -1.3432 3 -3Z" fill="#f8312f" stroke-width="1"></path><path d="M14.2505 17.742c0.3445 0.344 0.8874 0.344 1.2319 0l4.2592 -4.2537c0.3445 -0.3441 0.3445 -0.8862 0 -1.2303 -0.3445 -0.344 -0.8873 -0.344 -1.2318 0l-4.2593 4.2537c-0.334 0.3441 -0.334 0.8862 0 1.2303Z" fill="#9b9b9b" stroke-width="1"></path><path d="m19.6577 10.093 -0.45 -1.58999c-0.54 -1.9 -0.01 -3.95003 1.39 -5.34003l0.89 -0.88998c0.49 -0.5 1.33 -0.28002 1.52 0.38998L24 6l-4.3423 4.093ZM22 12.3299l1.5717 0.4585c1.8782 0.5501 3.9046 0.0102 5.2787 -1.4162l0.8797 -0.9067c0.4943 -0.49922 0.2768 -1.35501 -0.3855 -1.54858L26 8l-4 4.3299Z" fill="#46a4fb" stroke-width="1"></path><path d="M15.8499 16.1517c1.2237 1.2228 3.2278 1.1072 4.307 -0.2406l5.4246 -6.7972c0.6071 -0.76058 0.5492 -1.85814 -0.1445 -2.55133 -0.6937 -0.69319 -1.7922 -0.75098 -2.5534 -0.14444l-6.8025 5.42037c-1.3393 1.088 -1.4549 3.0905 -0.2312 4.3132Z" fill="#50e2ff" stroke-width="1"></path><path d="M21.258 10.742c0.3441 0.344 0.8862 0.344 1.2303 0l4.2537 -4.25371c0.344 -0.34405 0.344 -0.88621 0 -1.23025 -0.3441 -0.34405 -0.8862 -0.34405 -1.2303 0l-4.2537 4.2537c-0.344 0.34405 -0.344 0.89656 0 1.23026Z" fill="#46a4fb" stroke-width="1"></path></svg>